<svg xmlns="http://www.w3.org/2000/svg" xmlns:xlink="http://www.w3.org/1999/xlink" width="500" zoomAndPan="magnify" viewBox="0 0 375 374.999991" height="500" preserveAspectRatio="xMidYMid meet" version="1.0"><defs><g/><clipPath id="8f70b0be49"><path d="M 148 129.3125 L 273 129.3125 L 273 244 L 148 244 Z M 148 129.3125 " clip-rule="nonzero"/></clipPath><clipPath id="79385c6eb0"><rect x="0" width="131" y="0" height="181"/></clipPath><clipPath id="f2eff20e0b"><path d="M 133.5625 134.359375 L 147.8125 134.359375 L 147.8125 148.609375 L 133.5625 148.609375 Z M 133.5625 134.359375 " clip-rule="nonzero"/></clipPath><clipPath id="f19a027893"><path d="M 194.933594 169.839844 L 221.933594 169.839844 L 221.933594 220.089844 L 194.933594 220.089844 Z M 194.933594 169.839844 " clip-rule="nonzero"/></clipPath><clipPath id="b939140985"><path d="M 199 169.839844 L 221.933594 169.839844 L 221.933594 193 L 199 193 Z M 199 169.839844 " clip-rule="nonzero"/></clipPath></defs><g clip-path="url(#8f70b0be49)"><path fill="#ffffff" d="M 162.613281 196.417969 L 164.054688 196.417969 C 165.015625 201.089844 166.25 205.054688 167.765625 208.273438 C 169.273438 211.480469 170.953125 214.132812 172.777344 216.21875 C 174.609375 218.304688 176.507812 219.910156 178.515625 221.023438 C 180.503906 222.167969 182.523438 222.988281 184.5625 223.523438 C 186.605469 224.023438 188.570312 224.339844 190.425781 224.417969 C 192.304688 224.503906 194.058594 224.558594 195.707031 224.558594 C 200.316406 224.558594 204.089844 223.871094 207.039062 222.472656 C 209.996094 221.078125 212.355469 219.320312 214.089844 217.191406 C 215.804688 215.085938 217.046875 212.769531 217.722656 210.304688 C 217.976562 209.363281 218.203125 208.46875 218.367188 207.605469 C 220.386719 208.882812 222.394531 210.171875 224.414062 211.449219 C 223.183594 213.492188 221.6875 215.367188 219.953125 217.082031 C 217.070312 219.898438 213.609375 222.167969 209.515625 223.859375 C 205.445312 225.550781 200.839844 226.402344 195.707031 226.402344 C 193.875 226.402344 192.269531 226.382812 190.875 226.339844 C 189.496094 226.292969 188.199219 226.175781 186.976562 226.019531 C 185.742188 225.835938 184.53125 225.648438 183.308594 225.421875 C 182.097656 225.214844 180.742188 224.875 179.28125 224.4375 C 177.546875 223.9375 175.667969 223.3125 173.671875 222.625 C 171.683594 221.917969 169.9375 221.578125 168.453125 221.578125 C 167.144531 221.578125 166.257812 221.851562 165.800781 222.355469 C 165.320312 222.878906 164.90625 223.566406 164.566406 224.4375 L 162.601562 224.4375 L 162.601562 196.417969 Z M 189.148438 184.257812 C 197.640625 186.867188 208.054688 194.421875 218.707031 201.660156 C 218.519531 199.367188 217.996094 197.359375 217.082031 195.613281 C 215.957031 193.460938 214.539062 191.605469 212.800781 190.097656 C 211.066406 188.558594 209.167969 187.328125 207.125 186.367188 C 205.085938 185.425781 203.140625 184.675781 201.328125 184.171875 L 186.332031 179.597656 C 179.304688 177.425781 173.976562 174.566406 170.375 171.019531 C 166.761719 167.449219 164.972656 162.667969 164.972656 156.667969 C 164.972656 152.769531 165.660156 149.132812 167.054688 145.792969 C 168.429688 142.453125 170.394531 139.574219 172.917969 137.140625 C 175.4375 134.695312 178.460938 132.792969 181.957031 131.398438 C 185.480469 130 189.324219 129.3125 193.492188 129.3125 C 196.539062 129.3125 199.082031 129.585938 201.113281 130.085938 C 203.152344 130.613281 204.910156 131.210938 206.394531 131.84375 C 207.855469 132.511719 209.1875 133.078125 210.355469 133.601562 C 211.546875 134.125 212.734375 134.378906 213.949219 134.378906 C 215.070312 134.378906 215.824219 134.214844 216.21875 133.917969 C 216.632812 133.625 217.15625 132.871094 217.867188 131.648438 L 219.679688 131.648438 L 219.679688 155.226562 L 218.117188 155.226562 C 217.59375 152.09375 216.699219 149.070312 215.441406 146.15625 C 214.1875 143.25 212.5625 140.6875 210.5625 138.460938 C 208.578125 136.265625 206.144531 134.476562 203.328125 133.121094 C 200.511719 131.769531 197.214844 131.101562 193.480469 131.101562 C 191.398438 131.101562 189.105469 131.375 186.59375 131.953125 C 184.050781 132.5 181.714844 133.492188 179.542969 134.878906 C 177.371094 136.277344 175.582031 138.089844 174.140625 140.347656 C 172.699219 142.617188 171.988281 145.476562 171.988281 148.960938 C 171.988281 151.730469 172.558594 154.089844 173.679688 156.054688 C 174.804688 157.996094 176.269531 159.644531 178.058594 161 C 179.816406 162.351562 181.835938 163.464844 184.050781 164.382812 C 186.246094 165.300781 188.492188 166.097656 190.753906 166.785156 L 206.503906 171.75 C 208.171875 172.273438 210.257812 172.960938 212.78125 173.835938 C 215.300781 174.707031 217.746094 176.007812 220.125 177.753906 C 222.527344 179.46875 224.566406 181.78125 226.261719 184.640625 C 227.953125 187.523438 228.804688 191.167969 228.804688 195.578125 C 228.804688 199.542969 228.09375 203.296875 226.675781 206.886719 C 238.441406 214.351562 250 219.84375 259.015625 216.316406 C 283.554688 206.703125 261.710938 167.917969 248.394531 183.898438 C 246.835938 190.351562 242.371094 190.699219 239.46875 188.613281 C 236.421875 186.441406 236.191406 181.019531 241.226562 178.953125 C 253.515625 173.945312 264.410156 180.230469 269.308594 189.488281 C 273.6875 197.75 273.480469 208.285156 266.558594 214.484375 C 254.914062 224.917969 240.734375 218.195312 229.566406 211.375 C 204.136719 195.828125 167.558594 167.101562 152.648438 200.632812 C 142.945312 222.453125 160.78125 245.679688 179.039062 238.933594 C 180.777344 238.269531 182.402344 237.144531 183.800781 235.34375 C 185.449219 227.082031 191.082031 226.414062 194.878906 228.9375 C 198.820312 231.523438 199.453125 238.574219 193.089844 241.25 C 186.332031 244.109375 175.984375 243.945312 167.492188 241.203125 C 133.566406 230.34375 146.152344 171.050781 189.148438 184.257812 Z M 189.148438 184.257812 " fill-opacity="1" fill-rule="evenodd"/></g><g transform="matrix(1, 0, 0, 1, 89, 97)"><g clip-path="url(#79385c6eb0)"><g fill="#ffffff" fill-opacity="1"><g transform="translate(2.438797, 129.995524)"><g><path d="M 15.96875 -98.4375 C 21.78125 -100.851562 27.367188 -102.0625 32.734375 -102.0625 C 37.203125 -102.0625 41.804688 -100.40625 46.546875 -97.09375 C 49.140625 -95.300781 52.046875 -91.816406 55.265625 -86.640625 C 57.410156 -83.054688 60.132812 -76.570312 63.4375 -67.1875 L 79.796875 -20.78125 C 83.554688 -10.414062 87.378906 -2.171875 91.265625 3.953125 C 95.160156 10.078125 98.710938 14.679688 101.921875 17.765625 C 105.140625 20.847656 108.492188 23.015625 111.984375 24.265625 C 115.472656 25.523438 118.359375 26.15625 120.640625 26.15625 C 122.921875 26.15625 124.953125 25.972656 126.734375 25.609375 L 126.875 26.953125 C 122.582031 28.390625 118.378906 29.109375 114.265625 29.109375 C 110.148438 29.109375 106.035156 28.054688 101.921875 25.953125 C 97.816406 23.847656 93.972656 20.921875 90.390625 17.171875 C 82.703125 9.390625 76.175781 -2.457031 70.8125 -18.375 L 65.59375 -33.65625 L 28.84375 -33.65625 L 19.59375 -9.796875 C 19.144531 -8.722656 18.921875 -7.648438 18.921875 -6.578125 C 18.921875 -5.503906 19.390625 -4.363281 20.328125 -3.15625 C 21.265625 -1.945312 22.71875 -1.34375 24.6875 -1.34375 L 25.75 -1.34375 L 25.75 0 L -1.203125 0 L -1.203125 -1.34375 L 0 -1.34375 C 2.144531 -1.34375 4.242188 -1.988281 6.296875 -3.28125 C 8.359375 -4.582031 10.0625 -6.53125 11.40625 -9.125 L 44.671875 -88.78125 C 39.835938 -95.664062 33.84375 -99.109375 26.6875 -99.109375 C 23.46875 -99.109375 20.03125 -98.4375 16.375 -97.09375 Z M 30.3125 -37.6875 L 64.25 -37.6875 L 53.65625 -68.9375 C 51.59375 -74.925781 49.710938 -79.617188 48.015625 -83.015625 Z M 30.3125 -37.6875 "/></g></g></g></g></g><g clip-path="url(#f2eff20e0b)"><path fill="#000000" d="M 140.652344 134.359375 C 139.960938 140.199219 139.398438 140.757812 133.5625 141.449219 C 133.574219 141.453125 133.585938 141.453125 133.597656 141.453125 C 139.402344 142.144531 139.960938 142.714844 140.652344 148.539062 C 141.34375 142.703125 141.902344 142.140625 147.742188 141.449219 C 141.902344 140.757812 141.34375 140.199219 140.652344 134.359375 Z M 140.652344 134.359375 " fill-opacity="1" fill-rule="nonzero"/></g><g clip-path="url(#f19a027893)"><path stroke-linecap="butt" transform="matrix(0.00304798, 0, 0, -0.00307719, 195.044524, 220.109107)" fill="none" stroke-linejoin="miter" d="M 2983.026608 16300.535343 C 3314.957888 16016.18526 3648.170757 15733.104598 3891.672469 15437.329734 C 4135.174181 15141.554871 4288.964735 14833.085808 4329.97555 14632.517446 C 4369.704777 14431.949084 4295.372675 14339.281423 4126.203065 14360.861563 C 3957.033455 14382.441704 3691.744748 14518.269645 3426.456041 14518.269645 C 3161.167334 14518.269645 2895.878627 14382.441704 2630.589919 14170.448561 C 2366.5828 13957.185999 2101.294093 13667.758236 2064.128043 13707.110257 C 2026.961992 13747.731697 2217.918597 14117.132921 2538.315587 14392.597064 C 2858.712576 14666.791787 3309.831537 14844.510588 3619.975822 14887.670869 C 3931.401695 14930.831149 4104.41607 14839.432908 4150.553236 14635.056286 C 4196.690403 14431.949084 4117.231949 14117.132921 3931.401695 13877.212538 C 3746.85303 13637.292156 3457.214152 13469.728714 3275.228662 13264.082672 C 3093.243172 13057.16721 3018.91107 12810.899727 3068.893001 12752.506407 C 3117.593343 12694.113086 3290.607717 12823.593927 3494.380202 12909.914488 C 3698.152687 12996.235049 3931.401695 13039.39533 4123.639889 13076.20851 C 4314.596495 13113.02169 4461.97911 13143.487771 4582.448377 13264.082672 C 4702.917645 13383.408153 4795.191978 13594.131875 4801.599918 13609.364916 C 4806.72627 13624.597956 4727.267817 13445.609734 4615.769664 13350.403233 C 4505.5531 13253.927312 4363.296837 13242.502532 4221.040574 13288.201652 C 4080.065898 13335.170193 3937.809635 13439.262634 3922.43058 13482.422914 C 3907.051524 13525.583195 4018.549677 13507.811315 4098.00813 13415.143654 C 4178.748171 13322.475993 4227.448513 13156.181971 4240.264393 13001.312729 C 4253.080273 12847.712908 4227.448513 12705.537866 4185.156111 12647.144546 C 4141.58212 12588.751225 4080.065898 12612.870205 3977.538862 12634.450346 C 3876.293413 12656.030486 3734.03715 12675.071786 3687.899984 12739.812207 C 3641.762817 12804.552627 3691.744748 12914.992168 3792.990196 12973.385489 C 3895.517233 13033.04823 4049.307787 13039.39533 4135.174181 13029.23997 C 4221.040574 13020.35403 4240.264393 12996.235049 4246.672333 12906.106228 C 4253.080273 12817.246827 4246.672333 12662.377586 4212.069458 12597.637165 C 4178.748171 12532.896744 4117.231949 12558.285145 3931.401695 12603.984265 C 3746.85303 12650.952806 3439.27192 12718.232066 3266.257546 12718.232066 C 3093.243172 12718.232066 3056.077121 12650.952806 3259.849606 12560.823985 C 3463.622091 12471.964584 3907.051524 12360.255623 4288.964735 12262.510282 C 4672.159534 12163.495521 4992.556524 12077.17496 5216.834416 12003.548599 C 5442.393896 11928.652818 5571.83428 11867.720658 5685.895608 11885.492538 C 5799.956936 11904.533838 5898.639209 12003.548599 5916.58144 12036.553519 C 5935.80526 12070.82786 5874.289038 12040.361779 5833.278223 11954.041219 C 5793.548996 11867.720658 5775.606765 11725.545616 5839.686163 11611.297815 C 5905.047149 11497.050014 6052.429764 11410.729453 6163.927916 11420.884813 C 6274.14448 11429.770753 6348.476582 11535.132614 6416.400743 11632.877955 C 6484.324905 11731.892716 6545.841127 11824.560377 6650.931339 11889.300798 C 6756.021552 11954.041219 6903.404167 11990.854399 6967.483565 11960.388319 C 7032.844551 11928.652818 7014.902319 11830.907477 6940.570218 11749.664596 C 6866.238116 11669.691136 6736.797733 11608.758975 6727.826617 11518.630154 C 6718.855501 11429.770753 6829.072065 11312.984112 6964.920389 11220.316451 C 7100.768712 11127.64879 7260.967207 11060.369529 7359.64948 10952.468828 C 7458.331752 10844.568127 7495.497803 10696.045986 7460.894928 10527.213124 C 7427.573641 10357.110842 7322.483429 10165.42842 7304.541197 10143.84828 C 7285.317378 10122.26814 7353.24154 10270.790281 7313.512313 10335.530702 C 7273.783086 10400.271122 7125.118883 10381.229822 6986.707384 10264.443181 C 6848.295885 10147.65654 6718.855501 9931.855138 6684.252626 9928.046878 C 6650.931339 9925.508038 6712.447561 10134.96234 6804.721894 10357.110842 C 6896.996227 10579.259344 7020.028671 10812.832627 7131.526823 10866.148267 C 7243.024975 10918.194488 7341.707248 10788.713646 7368.620595 10622.419625 C 7396.81553 10456.125603 7353.24154 10251.748981 7421.165701 10138.7706 C 7489.089863 10024.522799 7667.230589 9999.134398 7785.136681 9922.969198 C 7901.761185 9845.534577 7958.151055 9716.053735 7947.898352 9638.619115 C 7938.927236 9561.184494 7864.595134 9537.065514 7800.515737 9573.878694 C 7735.154751 9610.691874 7680.046469 9709.706635 7473.710808 9759.214016 C 7267.375147 9808.721396 6909.812107 9808.721396 6838.043181 9848.073417 C 6767.555844 9888.694857 6984.144208 9968.668318 7217.393216 9959.782378 C 7451.923812 9949.627018 7704.39664 9851.881677 7794.107797 9712.245475 C 7883.818954 9573.878694 7809.486852 9394.890472 7818.457968 9247.637751 C 7828.710672 9099.115609 7920.985005 8982.328968 8052.988564 8788.107706 C 8186.273712 8593.886444 8358.006498 8322.230561 8340.064266 8063.268878 C 8320.840447 7804.307196 8111.94161 7558.039713 7605.714367 7382.859751 C 7100.768712 7206.41037 6299.776239 7102.317928 5330.895744 7102.317928 C 4363.296837 7102.317928 3229.091495 7206.41037 2474.236189 7499.646393 C 1718.099294 7792.882416 1342.594023 8272.723181 994.002099 8809.687846 C 645.410175 9345.383092 325.013185 9938.202238 168.659455 10443.431403 C 11.024136 10948.660568 17.432076 11367.569172 153.280399 11632.877955 C 287.847135 11898.186738 553.135842 12008.626279 1222.124755 12003.548599 C 1891.113668 11997.201499 2963.802788 11874.067758 3860.914358 11500.858274 C 4758.025928 11127.64879 5479.559947 10504.363564 5901.202385 9796.027196 C 6324.126411 9087.690829 6447.158854 8291.764481 6324.126411 7620.241294 C 6201.093967 6947.448687 5830.715047 6399.059241 5321.924628 5751.655034 C 4813.13421 5104.250828 4165.932292 4359.10128 3750.697794 3599.988112 C 3334.181708 2842.144364 3148.351454 2071.606417 2810.012233 1476.24843 C 2470.391425 882.159864 1978.26165 461.98184 1484.850286 43.073236 " stroke="#231f20" stroke-width="95.870003" stroke-opacity="1" stroke-miterlimit="22.926001"/></g><g clip-path="url(#b939140985)"><path stroke-linecap="butt" transform="matrix(0.00291314, 0, 0, -0.00294107, 195.044524, 220.109107)" fill="none" stroke-linejoin="miter" d="M 4697.998668 15158.361322 C 4803.930193 14844.912206 4911.202623 14532.791264 5097.58847 14271.140942 C 5285.315223 14009.49062 5552.155393 13800.967267 5899.449885 13672.134368 C 6245.403472 13541.973294 6671.811381 13494.159022 6952.060605 13422.437614 C 7232.309828 13352.04438 7367.741271 13259.072185 7436.127446 13147.50555 C 7503.172714 13035.938915 7503.172714 12907.106016 7497.809093 12832.728259 C 7491.104566 12758.350503 7477.695512 12739.756064 7469.65008 12774.288594 C 7461.604648 12810.149298 7458.922837 12900.465145 7405.286622 12950.935765 C 7351.650407 13000.078211 7248.400693 13010.703605 7169.287276 13055.861529 C 7090.173859 13101.019452 7036.537644 13180.709906 7007.037725 13273.682101 C 6977.537807 13365.326122 6974.855996 13468.923712 6889.038052 13575.177649 C 6803.220108 13681.431587 6635.606936 13790.341873 6532.357222 13856.750585 C 6429.107508 13923.159296 6391.562158 13945.738257 6392.903063 13911.205728 C 6394.243969 13878.001372 6435.812035 13787.685525 6508.220926 13738.543079 C 6580.629816 13690.728807 6683.87953 13684.087936 6663.765949 13753.152995 C 6642.311463 13823.546229 6497.493683 13968.317219 6394.243969 14261.843722 C 6290.994255 14555.370225 6229.312607 14997.652241 6214.562648 15364.228327 C 6201.153595 15732.132586 6233.335324 16025.659089 6329.880511 16143.866595 C 6426.425698 16260.745926 6587.334343 16203.634435 6671.811381 16062.847967 C 6754.947515 15922.0615 6761.652042 15700.256405 6880.99262 15503.68662 C 7000.333198 15307.116835 7232.309828 15135.78236 7395.900284 14964.447886 C 7558.149835 14794.441585 7652.013211 14623.107111 7625.195104 14492.946037 C 7597.036091 14361.456789 7448.195594 14271.140942 7469.65008 14297.704426 C 7491.104566 14322.939736 7681.513129 14465.054378 7892.035273 14451.772636 C 8103.898323 14438.490894 8335.874953 14271.140942 8447.170099 14079.883854 C 8558.465245 13887.298592 8549.078907 13672.134368 8591.987879 13522.050681 C 8636.237757 13371.966994 8732.782944 13288.292018 8852.123522 13231.180526 C 8971.464101 13175.397209 9113.60007 13146.177376 9156.509042 13107.660323 C 9199.418015 13067.815097 9145.781799 13020.000825 9054.600234 13029.298044 C 8964.759574 13039.923438 8838.714468 13107.660323 8679.146729 13192.663474 C 8519.578989 13277.666624 8326.488615 13381.264213 8111.943755 13411.81222 C 7897.398895 13442.360227 7661.399549 13401.186826 7461.604648 13422.437614 C 7261.809747 13446.34475 7096.878386 13532.676074 7098.219291 13508.768938 C 7100.901102 13484.861802 7268.514274 13349.388032 7527.309011 13257.74401 C 7787.444654 13164.771815 8138.761862 13116.957543 8394.874789 13139.536505 C 8652.328621 13162.115466 8813.237266 13255.087662 8877.600724 13378.607865 C 8941.964182 13500.799893 8909.782453 13652.211754 8827.987225 13828.858926 C 8744.851092 14006.834272 8613.442365 14210.044928 8473.988206 14336.221479 C 8335.874953 14461.069856 8191.057172 14510.212302 8079.762026 14515.524999 C 7968.46688 14519.509521 7890.694368 14480.992469 7933.60334 14510.212302 C 7977.853217 14539.432135 8142.784579 14636.388853 8142.784579 14805.066979 C 8142.784579 14975.073279 7977.853217 15216.800988 7865.217166 15465.169567 C 7752.581114 15713.538147 7690.899467 15967.219423 7617.149671 16114.646762 C 7542.05897 16260.745926 7454.900121 16300.591153 7351.650407 16214.259829 C 7248.400693 16129.256678 7129.060115 15919.405151 7071.401183 15753.383374 C 7013.742252 15587.361596 7016.424063 15465.169567 7020.446779 15341.649365 " stroke="#231f20" stroke-width="100.307999" stroke-opacity="1" stroke-miterlimit="22.926001"/></g></svg>